<?xml version="1.0" standalone="no"?>
<!DOCTYPE svg PUBLIC "-//W3C//DTD SVG 20010904//EN"
 "http://www.w3.org/TR/2001/REC-SVG-20010904/DTD/svg10.dtd">
<svg version="1.0" xmlns="http://www.w3.org/2000/svg"
 width="800.000000pt" height="800.000000pt" viewBox="0 0 800.000000 800.000000"
 preserveAspectRatio="xMidYMid meet">
<metadata>
Created by potrace 1.14, written by Peter Selinger 2001-2017
</metadata>
<g transform="translate(0.000000,800.000000) scale(0.100000,-0.100000)"
fill="#000000" stroke="none">
<path d="M0 4000 l0 -4000 4000 0 4000 0 0 4000 0 4000 -4000 0 -4000 0 0
-4000z m7400 2270 l0 -340 -3400 0 -3400 0 0 340 0 340 3400 0 3400 0 0 -340z
m-455 -2285 l0 -1340 -942 -3 -943 -2 0 250 0 250 605 0 605 0 0 275 0 275
-560 0 -560 0 0 250 0 250 558 2 557 3 0 315 0 315 -602 3 -603 2 0 250 0 250
943 -2 942 -3 0 -1340z m-4534 615 c125 -393 248 -782 274 -863 25 -82 49
-146 52 -144 3 3 128 392 277 864 l272 858 567 3 567 2 0 -1330 0 -1330 -340
0 -340 0 -1 998 c0 623 -4 989 -10 977 -5 -11 -106 -333 -225 -715 -119 -382
-255 -821 -303 -975 l-87 -280 -379 0 -378 0 -308 988 c-169 544 -310 991
-313 995 -3 3 -6 -443 -6 -991 l0 -997 -340 0 -340 0 0 1330 0 1330 567 -2
567 -3 227 -715z m4989 -2870 l0 -340 -3400 0 -3400 0 0 333 c0 184 3 337 7
340 3 4 1533 7 3400 7 l3393 0 0 -340z"/>
</g>
</svg>
